<svg width="70" height="70" viewBox="0 0 70 70" fill="none" xmlns="http://www.w3.org/2000/svg">
<rect width="70" height="70" rx="35" transform="matrix(-1 0 0 1 70 0)" fill="#62A744"/>
<path d="M17.5 30.6667H24.0625V28.1967C20.3 27.2217 17.5 23.8633 17.5 19.8333H24.0625V17.6667C24.0625 16.475 25.0469 15.5 26.25 15.5H43.75C44.9531 15.5 45.9375 16.475 45.9375 17.6667V19.8333H52.5C52.5 23.8633 49.7 27.2217 45.9375 28.1967V30.6667H52.5C52.5 34.6967 49.7 38.055 45.9375 39.03V41.5H52.5C52.5 45.53 49.7 48.8883 45.9375 49.8633V52.3333C45.9375 53.525 44.9531 54.5 43.75 54.5H26.25C25.0469 54.5 24.0625 53.525 24.0625 52.3333V49.8633C20.3 48.8883 17.5 45.53 17.5 41.5H24.0625V39.03C20.3 38.055 17.5 34.6967 17.5 30.6667ZM35 50.1667C37.4281 50.1667 39.375 48.2167 39.375 45.8333C39.375 43.45 37.4281 41.5 35 41.5C32.5938 41.5 30.625 43.45 30.625 45.8333C30.625 48.2167 32.5719 50.1667 35 50.1667ZM35 39.3333C37.4281 39.3333 39.375 37.3833 39.375 35C39.375 32.6167 37.4281 30.6667 35 30.6667C32.5938 30.6667 30.625 32.6167 30.625 35C30.625 37.3833 32.5719 39.3333 35 39.3333ZM35 28.5C37.4281 28.5 39.375 26.55 39.375 24.1667C39.375 21.7617 37.4281 19.8333 35 19.8333C32.5938 19.8333 30.625 21.7617 30.625 24.1667C30.625 26.55 32.5719 28.5 35 28.5Z" fill="white"/>
</svg>
