<svg width="70" height="70" viewBox="0 0 70 70" fill="none" xmlns="http://www.w3.org/2000/svg">
<rect width="70" height="70" rx="35" fill="#62A744"/>
<path d="M35 44.4722C37.1875 44.4722 39.0472 43.719 40.579 42.2127C42.1097 40.7051 42.875 38.875 42.875 36.7222C42.875 34.5694 42.1097 32.7393 40.579 31.2318C39.0472 29.7254 37.1875 28.9722 35 28.9722C32.8125 28.9722 30.9528 29.7254 29.421 31.2318C27.8903 32.7393 27.125 34.5694 27.125 36.7222C27.125 38.875 27.8903 40.7051 29.421 42.2127C30.9528 43.719 32.8125 44.4722 35 44.4722ZM21 50.5C20.0375 50.5 19.2138 50.163 18.529 49.4891C17.843 48.8139 17.5 48.0028 17.5 47.0556V26.3889C17.5 25.4417 17.843 24.6311 18.529 23.9571C19.2138 23.282 20.0375 22.9444 21 22.9444H26.5125L28.7 20.6194C29.0208 20.2463 29.407 19.9661 29.8585 19.779C30.3112 19.593 30.7854 19.5 31.2812 19.5H38.7188C39.2146 19.5 39.6888 19.593 40.1415 19.779C40.593 19.9661 40.9792 20.2463 41.3 20.6194L43.4875 22.9444H49C49.9625 22.9444 50.7868 23.282 51.4728 23.9571C52.1576 24.6311 52.5 25.4417 52.5 26.3889V47.0556C52.5 48.0028 52.1576 48.8139 51.4728 49.4891C50.7868 50.163 49.9625 50.5 49 50.5H21Z" fill="white"/>
</svg>
