<svg width="66" height="59" viewBox="0 0 66 59" fill="none" xmlns="http://www.w3.org/2000/svg">
<path d="M32.75 47.2222C36.8125 47.2222 40.2662 45.813 43.111 42.9947C45.9537 40.1741 47.375 36.75 47.375 32.7222C47.375 28.6944 45.9537 25.2703 43.111 22.4498C40.2662 19.6314 36.8125 18.2222 32.75 18.2222C28.6875 18.2222 25.2338 19.6314 22.389 22.4498C19.5463 25.2703 18.125 28.6944 18.125 32.7222C18.125 36.75 19.5463 40.1741 22.389 42.9947C25.2338 45.813 28.6875 47.2222 32.75 47.2222ZM6.75 58.5C4.9625 58.5 3.43283 57.8695 2.161 56.6086C0.887 55.3454 0.25 53.8278 0.25 52.0556V13.3889C0.25 11.6167 0.887 10.1001 2.161 8.83911C3.43283 7.576 4.9625 6.94444 6.75 6.94444H16.9875L21.05 2.59444C21.6458 1.8963 22.363 1.37215 23.2015 1.022C24.0422 0.674 24.9229 0.5 25.8438 0.5H39.6562C40.5771 0.5 41.4578 0.674 42.2985 1.022C43.137 1.37215 43.8542 1.8963 44.45 2.59444L48.5125 6.94444H58.75C60.5375 6.94444 62.0682 7.576 63.3423 8.83911C64.6141 10.1001 65.25 11.6167 65.25 13.3889V52.0556C65.25 53.8278 64.6141 55.3454 63.3423 56.6086C62.0682 57.8695 60.5375 58.5 58.75 58.5H6.75Z" fill="white"/>
</svg>
