<svg width="346" height="163" viewBox="0 0 346 163" fill="none" xmlns="http://www.w3.org/2000/svg">
<path d="M34 1H264.5L229.5 29.5L226.5 53.5L213.5 48L208.5 53.5L210.5 60.5L202 72L197 81L195 92L181.5 101L159.5 122L60 162.5H50.5L1.5 50L34 1Z" fill="white"/>
<path d="M264 1.5L285 1L344.5 111L309 162.5H208L250.5 21L264 1.5Z" fill="white"/>
<path d="M101.5 69C100.537 67.6518 104.489 67.6568 104.5 66C104.511 64.1998 101 63 101 63C101 63 98.2575 60.8163 97 59C96.0059 57.5641 95.4425 56.6895 95 55C94.4558 52.9222 95 49.5 95 49.5V43.5V40.5V37.5C95 36.719 95.1694 36.2625 95 35.5C94.8106 34.6476 94.6175 34.1175 94 33.5C93.1268 32.6268 92.2173 32.7078 91 32.5C89.6527 32.27 88.8353 32.7921 87.5 32.5C86.4728 32.2753 85.7743 32.2114 85 31.5C84.4815 31.0237 84 30 84 30L90 29.5C90 29.5 91.1192 28.4212 92 28C92.3857 27.8155 92.6627 27.6835 93 27.5943L92 25.5L91 23C90.4142 23 89.9142 23.4142 89.5 23C89.0858 22.5858 89.1666 21.9816 89.5 21.5C89.8515 20.9923 90.4477 20.7239 91 21C91.6986 21.3493 91 22.219 91 23L92 25.5L93 27.5943C93.1498 27.5547 93.3116 27.5236 93.5 27.5C93.8671 27.4541 94.1915 27.4363 94.4969 27.4599L94 21C93.4142 20.6095 92.4665 20.7032 92.5 20C92.5263 19.4483 92.9477 19 93.5 19C94.0523 19 94.4576 19.4493 94.5 20C94.5335 20.4353 94.1953 20.6095 94 21L94.4969 27.4599C94.9178 27.4924 95.3028 27.6036 95.7145 27.8286L97.4596 23.5979L97.5 23.5C97.5 23.5 96.4027 22.6973 96.5 22C96.6207 21.1351 97.7261 20.5955 98.5 21C99.2135 21.373 99.4376 22.3242 99 23C98.6493 23.5416 97.4596 23.5979 97.4596 23.5979L95.7145 27.8286C95.808 27.8797 95.903 27.9367 96 28C96.4626 28.3017 96.5771 28.6448 97 29C97.5391 29.4528 98.055 29.4545 98.5 30C99.2508 30.9203 99 33 99 33L99.5 36.5L100.5 41.5C100.833 42.6667 101.5 45.1 101.5 45.5C101.5 45.9 102.5 47.6667 103 48.5C103.5 49.3333 104.524 50.0237 105.5 51C106.086 51.5858 106.281 52.089 107 52.5C107.536 52.8064 107.904 53.1625 108.5 53C109.033 52.8547 109.262 52.4982 109.5 52C110.065 50.8183 108.703 50.1051 108 49C107.034 47.4812 105.905 47.056 105 45.5C104.161 44.058 104.107 43.0542 103.5 41.5C103.118 40.5204 102.642 40.0419 102.5 39C102.421 38.4196 102.5 37.5 102.5 37.5C102.5 37.5 102.427 36.5813 102.5 36C102.762 33.9042 104.217 33.1774 105.5 31.5C106.594 30.0703 107.424 29.443 108.5 28C109.334 26.8822 109.75 26.2099 110.479 25.0342L110.5 25C111.559 23.2911 112.422 22.4254 113 20.5C113.342 19.3625 113.055 18.6013 113.5 17.5C113.663 17.0952 114 16.5 114 16.5C114 16.5 115.42 18.5364 116 20C116.734 21.8513 116.609 23.0474 117 25V28.5C117 28.9 116.667 32.3333 116.5 34C116.333 35.6667 116.275 37.057 116 39C115.834 40.176 115.709 40.8309 115.5 42C115.149 43.9601 114.891 45.0474 114.5 47V50C114.5 50.4 114.833 51.8333 115 52.5C115 52.5 116.271 50.0869 117 48.5C120.876 40.0654 119.124 33.9346 123 25.5C123.729 23.9131 124.5 21.5 124.5 21.5C124.5 21.5 125.603 18.5479 127 17.5C128.397 16.4521 131.016 15.6543 132 15.5C132.984 15.3457 133.567 15.6518 134.5 16C135.567 16.3982 136.219 16.6718 137 17.5C137.483 18.0121 138 19 138 19C138 19 135.236 18.7259 133.5 19C131.67 19.2889 130.385 19.2693 129 20.5C127.695 21.6603 127.731 22.9139 127 24.5C126.377 25.8505 126.035 26.6124 125.5 28C124.834 29.7285 124 32.5 124 32.5L123 38C122.667 39.8333 122 43.6 122 44C122 44.4 125 35.8333 126.5 31.5C128 27.1667 131.245 25.6982 132 25.5C132.755 25.3018 133.238 25.3306 134 25.5C135.111 25.747 136.5 27 136.5 27L139 29C139 29 136.847 28.77 135.5 29C134.283 29.2078 133.529 29.3165 132.5 30C131.101 30.9297 130.667 32 130 33.5C129.333 35 128 38.1 128 38.5C128 38.9 126.333 42.3333 125.5 44C124.667 45.6667 123 49.5 123 49.5C123 49.5 129 42.6667 132 39C132 39 133.593 37.0886 135 36.5C136.096 36.0416 136.816 35.9053 138 36C138.803 36.0642 139.321 36.0678 140 36.5C140.961 37.1113 141.5 39 141.5 39L142 40.5C142 40.5 138.506 39.7316 136.5 40.5C134.562 41.2425 133.941 42.506 132.5 44C129.267 47.3526 128.679 50.19 126 54C123.754 57.1945 123.031 59.5374 120 62C118.233 63.4359 117.099 64.1163 115 65C113.862 65.4792 112.943 65.2023 112 66C110.865 66.9606 111.802 68.7807 110.5 69.5C109.475 70.0667 108.311 70.3457 107.5 69.5C106.496 68.453 109.924 66.8422 108.743 66C108.03 65.4914 107.296 65.6337 106.5 66C105.31 66.5478 106.105 68.2968 105 69C103.847 69.7338 102.294 70.1122 101.5 69Z" fill="black"/>
<path d="M95 40.5V43.5V49.5C95 49.5 94.4558 52.9222 95 55C95.4425 56.6895 96.0059 57.5641 97 59C98.2575 60.8163 101 63 101 63C101 63 104.511 64.1998 104.5 66C104.489 67.6568 100.537 67.6518 101.5 69C102.294 70.1122 103.847 69.7338 105 69C106.105 68.2968 105.31 66.5478 106.5 66C107.296 65.6337 108.03 65.4914 108.743 66C109.924 66.8422 106.496 68.453 107.5 69.5C108.311 70.3457 109.475 70.0667 110.5 69.5C111.802 68.7807 110.865 66.9606 112 66C112.943 65.2023 113.862 65.4792 115 65C117.099 64.1163 118.233 63.4359 120 62C123.031 59.5374 123.754 57.1945 126 54C128.679 50.19 129.267 47.3526 132.5 44C133.941 42.506 134.562 41.2425 136.5 40.5C138.506 39.7316 142 40.5 142 40.5L141.5 39C141.5 39 140.961 37.1113 140 36.5C139.321 36.0678 138.803 36.0642 138 36C136.816 35.9053 136.096 36.0416 135 36.5C133.593 37.0886 132 39 132 39C129 42.6667 123 49.5 123 49.5C123 49.5 124.667 45.6667 125.5 44C126.333 42.3333 128 38.9 128 38.5C128 38.1 129.333 35 130 33.5C130.667 32 131.101 30.9297 132.5 30C133.529 29.3165 134.283 29.2078 135.5 29C136.847 28.77 139 29 139 29L136.5 27C136.5 27 135.111 25.747 134 25.5C133.238 25.3306 132.755 25.3018 132 25.5C131.245 25.6982 128 27.1667 126.5 31.5C125 35.8333 122 44.4 122 44C122 43.6 122.667 39.8333 123 38L124 32.5C124 32.5 124.834 29.7285 125.5 28C126.035 26.6124 126.377 25.8505 127 24.5C127.731 22.9139 127.695 21.6603 129 20.5C130.385 19.2693 131.67 19.2889 133.5 19C135.236 18.7259 138 19 138 19C138 19 137.483 18.0121 137 17.5C136.219 16.6718 135.567 16.3982 134.5 16C133.567 15.6518 132.984 15.3457 132 15.5C131.016 15.6543 128.397 16.4521 127 17.5C125.603 18.5479 124.5 21.5 124.5 21.5C124.5 21.5 123.729 23.9131 123 25.5C119.124 33.9346 120.876 40.0654 117 48.5C116.271 50.0869 115 52.5 115 52.5C114.833 51.8333 114.5 50.4 114.5 50M95 40.5C95 40.5 95 38.6716 95 37.5M95 40.5V37.5M95 37.5C95 36.719 95.1694 36.2625 95 35.5C94.8106 34.6476 94.6175 34.1175 94 33.5C93.1268 32.6268 92.2173 32.7078 91 32.5C89.6527 32.27 88.8353 32.7921 87.5 32.5C86.4728 32.2753 85.7743 32.2114 85 31.5C84.4815 31.0237 84 30 84 30L90 29.5C90 29.5 91.1192 28.4212 92 28C92.3857 27.8155 92.6627 27.6835 93 27.5943M110.5 25C111.559 23.2911 112.422 22.4254 113 20.5C113.342 19.3625 113.055 18.6013 113.5 17.5C113.663 17.0952 114 16.5 114 16.5C114 16.5 115.42 18.5364 116 20C116.734 21.8513 116.609 23.0474 117 25M110.5 25L110.479 25.0342M110.5 25C110.493 25.0115 110.486 25.0229 110.479 25.0342M117 25C117 26 117 28.1 117 28.5M117 25C117 26.3668 117 27.1332 117 28.5M117 25V28.5M117 28.5C117 28.9 116.667 32.3333 116.5 34C116.333 35.6667 116.275 37.057 116 39C115.834 40.176 115.709 40.8309 115.5 42C115.149 43.9601 114.891 45.0474 114.5 47M114.5 47C114.5 47.8333 114.5 49.6 114.5 50M114.5 47C114.5 48.1716 114.5 48.8284 114.5 50M114.5 47V50M110.479 25.0342C109.75 26.2099 109.334 26.8822 108.5 28C107.424 29.443 106.594 30.0703 105.5 31.5C104.217 33.1774 102.762 33.9042 102.5 36C102.427 36.5813 102.5 37.5 102.5 37.5C102.5 37.5 102.421 38.4196 102.5 39C102.642 40.0419 103.118 40.5204 103.5 41.5C104.107 43.0542 104.161 44.058 105 45.5C105.905 47.056 107.034 47.4812 108 49C108.703 50.1051 110.065 50.8183 109.5 52C109.262 52.4982 109.033 52.8547 108.5 53C107.904 53.1625 107.536 52.8064 107 52.5C106.281 52.089 106.086 51.5858 105.5 51C104.524 50.0237 103.5 49.3333 103 48.5C102.5 47.6667 101.5 45.9 101.5 45.5C101.5 45.1 100.833 42.6667 100.5 41.5L99.5 36.5L99 33C99 33 99.2508 30.9203 98.5 30C98.055 29.4545 97.5391 29.4528 97 29C96.5771 28.6448 96.4626 28.3017 96 28C95.903 27.9367 95.808 27.8797 95.7145 27.8286M93 27.5943C93.1498 27.5547 93.3116 27.5236 93.5 27.5C94.373 27.3909 95.004 27.4403 95.7145 27.8286M93 27.5943L92 25.5C92 25.5 91.3905 23.9763 91 23M91 23C90.4142 23 89.9142 23.4142 89.5 23C89.0858 22.5858 89.1666 21.9816 89.5 21.5C89.8515 20.9923 90.4477 20.7239 91 21C91.6986 21.3493 91 22.219 91 23ZM94.5 27.5C94.5 27.5 94.1953 23.5384 94 21M94 21C93.4142 20.6095 92.4665 20.7032 92.5 20C92.5263 19.4483 92.9477 19 93.5 19C94.0523 19 94.4576 19.4493 94.5 20C94.5335 20.4353 94.1953 20.6095 94 21ZM95.7145 27.8286L97.4596 23.5979M97.4596 23.5979L97.5 23.5C97.5 23.5 96.4027 22.6973 96.5 22C96.6207 21.1351 97.7261 20.5955 98.5 21C99.2135 21.373 99.4376 22.3242 99 23C98.6493 23.5416 97.4596 23.5979 97.4596 23.5979Z" stroke="black"/>
<path d="M228 9.99997C240.027 4.63328 261 1.00029 261 1.00029L285 1L289 8.50031C289 8.50031 266.021 10.5914 257 17.5C254.476 19.4327 252.608 20.258 251 23C248.234 27.7163 250.342 31.5723 251 37C252.278 47.5498 257.68 52.2541 260.5 62.5C261.619 66.5639 262.473 68.818 263 73C263.611 77.8432 263.425 80.637 263 85.5C262.533 90.8413 261.66 93.7653 260.5 99C259.321 104.317 258.888 107.391 257 112.5C253.169 122.867 248.689 127.701 242 136.5C237.309 142.671 234.681 146.226 229 151.5C223.791 156.336 214.5 162.5 214.5 162.5H57C57 162.5 97.5553 145.736 122 132C146.079 118.47 161.444 112.504 181 93C187.269 86.7476 196 76 196 76C196 76 202.837 64.9566 204.5 57C206.098 49.3547 203.535 44.7507 204.5 37C205.266 30.8419 204.731 26.7746 208 21.5C212.746 13.842 219.772 13.6714 228 9.99997Z" fill="black"/>
<path d="M154.5 142C141.102 150.585 119 162 119 162H159C159 162 175.942 150.427 186 142C194.579 134.813 207 122.5 207 122.5H182C182 122.5 165.585 134.897 154.5 142Z" fill="white"/>
<path d="M213.5 116H191C191 115.6 202.667 104.5 208.5 99C214.333 93.5 219 81.5 219 81.5H235C235 81.5 230.456 92.5137 226.5 99C222.148 106.135 213.5 116 213.5 116Z" fill="white"/>
<path d="M236 77H221.5C221.5 77 224.313 70.7244 225.5 66.5C226.629 62.4814 227.5 56 227.5 56H239C239 56 239.558 62.4376 239 66.5C238.42 70.725 236 77 236 77Z" fill="white"/>
<path d="M238 52.5H227C227 52.5 226.218 46.0795 225.5 42C224.982 39.0582 224 34.5 224 34.5H233C233 34.5 233.339 39.12 234 42C234.981 46.2768 238 52.5 238 52.5Z" fill="white"/>
<path d="M233 31H224C224 31 225.832 27.139 227.5 25C229.028 23.0403 232 20.5 232 20.5H237C237 20.5 234.794 23.3659 234 25.5C233.239 27.546 233 31 233 31Z" fill="white"/>
<path d="M246 12.5L236.5 18H239.5L246 12.5Z" fill="white"/>
<path d="M113.219 84.6745L126.25 116L103.852 115.999L92.7082 84.6765L113.219 84.6745Z" fill="black" stroke="#272727"/>
<path d="M37.0997 66.842C36.0324 67.7698 35.2652 78.7421 36.1929 79.8103C37.1205 80.8785 131.959 86.5069 131.959 86.5069C131.959 86.5069 132.119 88.2554 132.782 89.0714C134.559 91.2563 134.654 84.5883 137.191 83.3651C138.303 82.8287 139.192 83.2088 140.253 82.5768C141.328 81.9369 142.65 81.4519 142.423 80.2224C142.246 79.2623 141.39 79.0529 140.532 78.5865C139.489 78.0192 138.634 78.4157 137.575 77.8785C135.063 76.6047 136.103 69.7378 134.003 71.6141C133.352 72.1957 132.866 73.5386 132.866 73.5386C132.866 73.5386 38.167 65.9142 37.0997 66.842Z" fill="black" stroke="black" stroke-width="4"/>
<path d="M69.5 79C80.5457 79 89.5 87.9543 89.5 99C89.5 110.046 80.5457 119 69.5 119C58.4543 119 49.5 110.046 49.5 99C49.5 87.9543 58.4543 79 69.5 79ZM69.5 89C63.9772 89 59.5 93.4772 59.5 99C59.5 104.523 63.9772 109 69.5 109C75.0228 109 79.5 104.523 79.5 99C79.5 93.4772 75.0228 89 69.5 89Z" fill="black"/>
<circle cx="94" cy="29" r="1" fill="white"/>
</svg>
