<svg width="60" height="60" viewBox="0 0 60 60" fill="none" xmlns="http://www.w3.org/2000/svg">
<mask id="path-2-outside-1_2_107" maskUnits="userSpaceOnUse" x="6.5752" y="8.74152" width="49" height="43" fill="black">
<rect fill="white" x="6.5752" y="8.74152" width="49" height="43"/>
<path d="M17.8818 19.887C19.4771 18.2926 22.0631 18.2922 23.6582 19.886L30.0986 26.3216L38.0566 20.8831C40.2406 19.3903 43.178 19.6628 45.0488 21.5325L49.8018 26.2825C55.0166 31.4945 55.3108 39.8534 50.4756 45.4212C46.7925 49.6618 40.9364 51.3007 35.5879 49.5882L33.5498 48.9359L25.4238 46.3939C23.3843 45.7556 21.8986 43.9935 21.6152 41.8753L21.5488 41.3773C21.3834 40.1398 22.2804 39.0123 23.5234 38.8948L28.6309 38.4134C29.0431 38.374 29.2318 37.8791 28.9502 37.5755L17.7773 25.5569C16.2811 23.9471 16.3273 21.4413 17.8818 19.887ZM22.9512 20.5931C21.7465 19.3894 19.7936 19.3899 18.5889 20.5941C17.4148 21.7679 17.3806 23.6605 18.5107 24.8763L29.6816 36.8948C30.5284 37.8059 29.9621 39.2917 28.7236 39.4085L23.6172 39.8909C22.9393 39.9552 22.4497 40.5705 22.54 41.2454L22.6074 41.7435C22.8395 43.4765 24.0547 44.9188 25.7236 45.4407L33.8516 47.9827L33.8545 47.9837L35.8926 48.636C40.8603 50.2266 46.299 48.7037 49.7197 44.765C54.2109 39.5936 53.9375 31.8314 49.0938 26.9905L44.3408 22.2396C42.8101 20.7102 40.4069 20.4859 38.6201 21.7073L30.3213 27.3821C30.1227 27.5179 29.8556 27.4925 29.6855 27.3226L22.9512 20.5931ZM19.6816 9.74152C23.3979 9.74159 26.7234 11.416 28.9434 14.0491C29.1211 14.2602 29.0947 14.5753 28.8838 14.7532C28.6727 14.9312 28.3567 14.9046 28.1787 14.6937C26.1407 12.2764 23.0908 10.7416 19.6816 10.7415C13.5475 10.7416 8.57523 15.7113 8.5752 21.8411C8.57524 25.7117 10.5569 29.1206 13.5645 31.1077C13.7946 31.26 13.8582 31.5698 13.7061 31.8001C13.5539 32.0303 13.244 32.0936 13.0137 31.9417C9.73802 29.7774 7.57524 26.0617 7.5752 21.8411C7.57523 15.1584 12.9957 9.74156 19.6816 9.74152Z"/>
</mask>
<path d="M17.8818 19.887C19.4771 18.2926 22.0631 18.2922 23.6582 19.886L30.0986 26.3216L38.0566 20.8831C40.2406 19.3903 43.178 19.6628 45.0488 21.5325L49.8018 26.2825C55.0166 31.4945 55.3108 39.8534 50.4756 45.4212C46.7925 49.6618 40.9364 51.3007 35.5879 49.5882L33.5498 48.9359L25.4238 46.3939C23.3843 45.7556 21.8986 43.9935 21.6152 41.8753L21.5488 41.3773C21.3834 40.1398 22.2804 39.0123 23.5234 38.8948L28.6309 38.4134C29.0431 38.374 29.2318 37.8791 28.9502 37.5755L17.7773 25.5569C16.2811 23.9471 16.3273 21.4413 17.8818 19.887ZM22.9512 20.5931C21.7465 19.3894 19.7936 19.3899 18.5889 20.5941C17.4148 21.7679 17.3806 23.6605 18.5107 24.8763L29.6816 36.8948C30.5284 37.8059 29.9621 39.2917 28.7236 39.4085L23.6172 39.8909C22.9393 39.9552 22.4497 40.5705 22.54 41.2454L22.6074 41.7435C22.8395 43.4765 24.0547 44.9188 25.7236 45.4407L33.8516 47.9827L33.8545 47.9837L35.8926 48.636C40.8603 50.2266 46.299 48.7037 49.7197 44.765C54.2109 39.5936 53.9375 31.8314 49.0938 26.9905L44.3408 22.2396C42.8101 20.7102 40.4069 20.4859 38.6201 21.7073L30.3213 27.3821C30.1227 27.5179 29.8556 27.4925 29.6855 27.3226L22.9512 20.5931ZM19.6816 9.74152C23.3979 9.74159 26.7234 11.416 28.9434 14.0491C29.1211 14.2602 29.0947 14.5753 28.8838 14.7532C28.6727 14.9312 28.3567 14.9046 28.1787 14.6937C26.1407 12.2764 23.0908 10.7416 19.6816 10.7415C13.5475 10.7416 8.57523 15.7113 8.5752 21.8411C8.57524 25.7117 10.5569 29.1206 13.5645 31.1077C13.7946 31.26 13.8582 31.5698 13.7061 31.8001C13.5539 32.0303 13.244 32.0936 13.0137 31.9417C9.73802 29.7774 7.57524 26.0617 7.5752 21.8411C7.57523 15.1584 12.9957 9.74156 19.6816 9.74152Z" fill="white"/>
<path d="M17.8818 19.887L17.1749 19.1798L17.1748 19.1799L17.8818 19.887ZM23.6582 19.886L24.365 19.1787L24.365 19.1787L23.6582 19.886ZM30.0986 26.3216L29.3918 27.029L29.9783 27.615L30.6629 27.1472L30.0986 26.3216ZM38.0566 20.8831L38.6209 21.7087L38.6209 21.7087L38.0566 20.8831ZM45.0488 21.5325L44.3419 22.2398L44.3419 22.2399L45.0488 21.5325ZM49.8018 26.2825L50.5087 25.5752L50.5086 25.5752L49.8018 26.2825ZM50.4756 45.4212L51.2306 46.0769L51.2306 46.0769L50.4756 45.4212ZM35.5879 49.5882L35.8928 48.6358L35.8927 48.6358L35.5879 49.5882ZM33.5498 48.9359L33.8547 47.9834L33.8484 47.9815L33.5498 48.9359ZM25.4238 46.3939L25.1252 47.3482L25.1253 47.3483L25.4238 46.3939ZM21.6152 41.8753L20.624 42.0075L20.6241 42.0079L21.6152 41.8753ZM21.5488 41.3773L22.5401 41.2451L22.54 41.2448L21.5488 41.3773ZM23.5234 38.8948L23.4296 37.8993L23.4294 37.8993L23.5234 38.8948ZM28.6309 38.4134L28.7247 39.409L28.7259 39.4089L28.6309 38.4134ZM28.9502 37.5755L29.6833 36.8954L29.6826 36.8946L28.9502 37.5755ZM17.7773 25.5569L17.0449 26.2377L17.0449 26.2378L17.7773 25.5569ZM22.9512 20.5931L23.658 19.8857L23.658 19.8857L22.9512 20.5931ZM18.5889 20.5941L17.8819 19.8868L17.8818 19.8869L18.5889 20.5941ZM18.5107 24.8763L19.2432 24.1955L19.2432 24.1954L18.5107 24.8763ZM29.6816 36.8948L30.4141 36.2141L30.4141 36.214L29.6816 36.8948ZM28.7236 39.4085L28.6297 38.4129L28.6296 38.4129L28.7236 39.4085ZM23.6172 39.8909L23.5231 38.8954L23.5229 38.8954L23.6172 39.8909ZM22.54 41.2454L21.5489 41.378L21.5491 41.3795L22.54 41.2454ZM22.6074 41.7435L23.5986 41.6107L23.5984 41.6094L22.6074 41.7435ZM25.7236 45.4407L25.4251 46.3951L25.4251 46.3951L25.7236 45.4407ZM33.8516 47.9827L34.1678 47.034L34.1589 47.0311L34.1501 47.0283L33.8516 47.9827ZM33.8545 47.9837L33.5382 48.9325L33.5497 48.9361L33.8545 47.9837ZM35.8926 48.636L36.1975 47.6837L36.1974 47.6836L35.8926 48.636ZM49.7197 44.765L50.4747 45.4207L50.4747 45.4207L49.7197 44.765ZM49.0938 26.9905L48.3868 27.6978L48.3869 27.6979L49.0938 26.9905ZM44.3408 22.2396L45.0478 21.5323L45.0476 21.5322L44.3408 22.2396ZM38.6201 21.7073L38.0558 20.8818L38.0557 20.8819L38.6201 21.7073ZM30.3213 27.3821L30.8856 28.2077L30.8857 28.2076L30.3213 27.3821ZM29.6855 27.3226L30.3924 26.6152H30.3924L29.6855 27.3226ZM19.6816 9.74152L19.6817 8.74152H19.6816L19.6816 9.74152ZM28.9434 14.0491L29.7082 13.4049L29.7079 13.4045L28.9434 14.0491ZM28.8838 14.7532L29.5284 15.5178L29.5287 15.5175L28.8838 14.7532ZM28.1787 14.6937L27.4142 15.3383L27.4145 15.3386L28.1787 14.6937ZM19.6816 10.7415L19.6817 9.74152L19.6816 9.74152L19.6816 10.7415ZM8.5752 21.8411L7.5752 21.8411L7.5752 21.8411L8.5752 21.8411ZM13.5645 31.1077L14.1162 30.2737L14.1157 30.2734L13.5645 31.1077ZM13.7061 31.8001L14.5402 32.3516L14.5404 32.3513L13.7061 31.8001ZM13.0137 31.9417L12.4624 32.776L12.4632 32.7765L13.0137 31.9417ZM7.5752 21.8411L6.5752 21.8411V21.8411L7.5752 21.8411ZM17.8818 19.887L18.5888 20.5943C19.7936 19.39 21.7468 19.3899 22.9514 20.5934L23.6582 19.886L24.365 19.1787C22.3793 17.1945 19.1605 17.1951 17.1749 19.1798L17.8818 19.887ZM23.6582 19.886L22.9514 20.5934L29.3918 27.029L30.0986 26.3216L30.8055 25.6142L24.365 19.1787L23.6582 19.886ZM30.0986 26.3216L30.6629 27.1472L38.6209 21.7087L38.0566 20.8831L37.4924 20.0575L29.5344 25.496L30.0986 26.3216ZM38.0566 20.8831L38.6209 21.7087C40.4082 20.4871 42.8115 20.7103 44.3419 22.2398L45.0488 21.5325L45.7557 20.8252C43.5445 18.6153 40.0731 18.2935 37.4923 20.0576L38.0566 20.8831ZM45.0488 21.5325L44.3419 22.2399L49.0949 26.9899L49.8018 26.2825L50.5086 25.5752L45.7557 20.8252L45.0488 21.5325ZM49.8018 26.2825L49.0948 26.9898C53.9382 31.8305 54.2116 39.594 49.7206 44.7655L50.4756 45.4212L51.2306 46.0769C56.4101 40.1127 56.0951 31.1586 50.5087 25.5752L49.8018 26.2825ZM50.4756 45.4212L49.7206 44.7655C46.2998 48.7041 40.8605 50.2264 35.8928 48.6358L35.5879 49.5882L35.283 50.5406C41.0124 52.375 47.2853 50.6194 51.2306 46.0769L50.4756 45.4212ZM35.5879 49.5882L35.8927 48.6358L33.8546 47.9834L33.5498 48.9359L33.245 49.8883L35.283 50.5406L35.5879 49.5882ZM33.5498 48.9359L33.8484 47.9815L25.7224 45.4395L25.4238 46.3939L25.1253 47.3483L33.2512 49.8902L33.5498 48.9359ZM25.4238 46.3939L25.7225 45.4395C24.0537 44.9173 22.8382 43.4755 22.6064 41.7427L21.6152 41.8753L20.6241 42.0079C20.959 44.5115 22.7149 46.5939 25.1252 47.3482L25.4238 46.3939ZM21.6152 41.8753L22.6065 41.7431L22.5401 41.2451L21.5488 41.3773L20.5576 41.5094L20.624 42.0075L21.6152 41.8753ZM21.5488 41.3773L22.54 41.2448C22.4498 40.5699 22.9392 39.9545 23.6175 39.8904L23.5234 38.8948L23.4294 37.8993C21.6215 38.07 20.3171 39.7097 20.5576 41.5097L21.5488 41.3773ZM23.5234 38.8948L23.6173 39.8904L28.7247 39.409L28.6309 38.4134L28.537 37.4178L23.4296 37.8993L23.5234 38.8948ZM28.6309 38.4134L28.7259 39.4089C29.9619 39.2909 30.5287 37.8068 29.6833 36.8954L28.9502 37.5755L28.217 38.2556C27.9348 37.9513 28.1243 37.4572 28.5358 37.4179L28.6309 38.4134ZM28.9502 37.5755L29.6826 36.8946L18.5097 24.8761L17.7773 25.5569L17.0449 26.2378L28.2178 38.2564L28.9502 37.5755ZM17.7773 25.5569L18.5098 24.8762C17.38 23.6606 17.4147 21.7681 18.5889 20.5942L17.8818 19.887L17.1748 19.1799C15.2399 21.1144 15.1821 24.2336 17.0449 26.2377L17.7773 25.5569ZM22.9512 20.5931L23.658 19.8857C22.0626 18.2916 19.4769 18.2926 17.8819 19.8868L18.5889 20.5941L19.2958 21.3013C20.1103 20.4873 21.4304 20.4872 22.2444 21.3005L22.9512 20.5931ZM18.5889 20.5941L17.8818 19.8869C16.3271 21.4413 16.2819 23.9474 17.7783 25.5571L18.5107 24.8763L19.2432 24.1954C18.4793 23.3737 18.5025 22.0945 19.2959 21.3012L18.5889 20.5941ZM18.5107 24.8763L17.7783 25.5571L28.9492 37.5756L29.6816 36.8948L30.4141 36.214L19.2432 24.1955L18.5107 24.8763ZM29.6816 36.8948L28.9492 37.5756C29.231 37.8789 29.0431 38.3739 28.6297 38.4129L28.7236 39.4085L28.8176 40.4041C30.8811 40.2094 31.8257 37.7329 30.4141 36.2141L29.6816 36.8948ZM28.7236 39.4085L28.6296 38.4129L23.5231 38.8954L23.6172 39.8909L23.7112 40.8865L28.8177 40.4041L28.7236 39.4085ZM23.6172 39.8909L23.5229 38.8954C22.2805 39.0131 21.3833 40.1403 21.5489 41.378L22.54 41.2454L23.5312 41.1128C23.5162 41.0007 23.598 40.8972 23.7115 40.8865L23.6172 39.8909ZM22.54 41.2454L21.5491 41.3795L21.6165 41.8775L22.6074 41.7435L23.5984 41.6094L23.531 41.1113L22.54 41.2454ZM22.6074 41.7435L21.6163 41.8762C21.8999 43.9943 23.3851 45.7571 25.4251 46.3951L25.7236 45.4407L26.0221 44.4863C24.7244 44.0804 23.7791 42.9587 23.5986 41.6107L22.6074 41.7435ZM25.7236 45.4407L25.4251 46.3951L33.5531 48.9371L33.8516 47.9827L34.1501 47.0283L26.0221 44.4863L25.7236 45.4407ZM33.8516 47.9827L33.5353 48.9314L33.5383 48.9324L33.8545 47.9837L34.1707 47.035L34.1678 47.034L33.8516 47.9827ZM33.8545 47.9837L33.5497 48.9361L35.5877 49.5885L35.8926 48.636L36.1974 47.6836L34.1593 47.0313L33.8545 47.9837ZM35.8926 48.636L35.5876 49.5884C40.9364 51.301 46.7919 49.6612 50.4747 45.4207L49.7197 44.765L48.9647 44.1092C45.8061 47.7461 40.7843 49.1523 36.1975 47.6837L35.8926 48.636ZM49.7197 44.765L50.4747 45.4207C55.3102 39.8529 55.016 31.4955 49.8006 26.2832L49.0938 26.9905L48.3869 27.6979C52.8591 32.1674 53.1116 39.3342 48.9647 44.1092L49.7197 44.765ZM49.0938 26.9905L49.8007 26.2833L45.0478 21.5323L44.3408 22.2396L43.6339 22.9468L48.3868 27.6978L49.0938 26.9905ZM44.3408 22.2396L45.0476 21.5322C43.1769 19.6631 40.2398 19.3888 38.0558 20.8818L38.6201 21.7073L39.1845 22.5329C40.574 21.583 42.4433 21.7572 43.634 22.947L44.3408 22.2396ZM38.6201 21.7073L38.0557 20.8819L29.7568 26.5567L30.3213 27.3821L30.8857 28.2076L39.1846 22.5328L38.6201 21.7073ZM30.3213 27.3821L29.7569 26.5566C29.957 26.4199 30.2236 26.4465 30.3924 26.6152L29.6855 27.3226L28.9787 28.0299C29.4877 28.5385 30.2885 28.6159 30.8856 28.2077L30.3213 27.3821ZM29.6855 27.3226L30.3924 26.6152L23.658 19.8857L22.9512 20.5931L22.2443 21.3004L28.9787 28.0299L29.6855 27.3226ZM19.6816 9.74152L19.6816 10.7415C23.0907 10.7416 26.1407 12.2763 28.1788 14.6937L28.9434 14.0491L29.7079 13.4045C27.306 10.5557 23.705 8.7416 19.6817 8.74152L19.6816 9.74152ZM28.9434 14.0491L28.1785 14.6933C28.0016 14.4833 28.0269 14.1679 28.2388 13.989L28.8838 14.7532L29.5287 15.5175C30.1625 14.9826 30.2406 14.0371 29.7082 13.4049L28.9434 14.0491ZM28.8838 14.7532L28.2392 13.9887C28.4495 13.8114 28.7643 13.837 28.9429 14.0487L28.1787 14.6937L27.4145 15.3386C27.9492 15.9722 28.8959 16.051 29.5284 15.5178L28.8838 14.7532ZM28.1787 14.6937L28.9432 14.0491C26.7233 11.416 23.3979 9.7416 19.6817 9.74152L19.6816 10.7415L19.6816 11.7415C22.7837 11.7416 25.5581 13.1368 27.4142 15.3383L28.1787 14.6937ZM19.6816 10.7415L19.6816 9.74152C12.9957 9.74156 7.57524 15.1584 7.5752 21.8411L8.5752 21.8411L9.5752 21.8411C9.57523 16.2641 14.0992 11.7416 19.6816 11.7415L19.6816 10.7415ZM8.5752 21.8411L7.5752 21.8411C7.57525 26.0615 9.7374 29.7777 13.0132 31.9421L13.5645 31.1077L14.1157 30.2734C11.3765 28.4635 9.57524 25.3618 9.5752 21.8411L8.5752 21.8411ZM13.5645 31.1077L13.0127 31.9418C12.7836 31.7901 12.7189 31.4802 12.8717 31.2489L13.7061 31.8001L14.5404 32.3513C14.9976 31.6594 14.8057 30.7299 14.1162 30.2737L13.5645 31.1077ZM13.7061 31.8001L12.8719 31.2486C13.0242 31.0182 13.334 30.9551 13.5642 31.1069L13.0137 31.9417L12.4632 32.7765C13.1539 33.232 14.0835 33.0423 14.5402 32.3516L13.7061 31.8001ZM13.0137 31.9417L13.5649 31.1074C10.5574 29.1202 8.57524 25.7116 8.5752 21.8411L7.5752 21.8411L6.5752 21.8411C6.57525 26.4118 8.91869 30.4346 12.4624 32.776L13.0137 31.9417ZM7.5752 21.8411L8.5752 21.8411C8.57523 15.7113 13.5475 10.7416 19.6816 10.7415L19.6816 9.74152L19.6816 8.74152C12.444 8.74156 6.57524 14.6056 6.5752 21.8411L7.5752 21.8411Z" fill="white" mask="url(#path-2-outside-1_2_107)"/>
</svg>
