<svg width="66" height="72" viewBox="0 0 66 72" fill="none" xmlns="http://www.w3.org/2000/svg">
<path d="M0.75 28H12.9375V23.44C5.95 21.64 0.75 15.44 0.75 8H12.9375V4C12.9375 1.8 14.7656 0 17 0H49.5C51.7344 0 53.5625 1.8 53.5625 4V8H65.75C65.75 15.44 60.55 21.64 53.5625 23.44V28H65.75C65.75 35.44 60.55 41.64 53.5625 43.44V48H65.75C65.75 55.44 60.55 61.64 53.5625 63.44V68C53.5625 70.2 51.7344 72 49.5 72H17C14.7656 72 12.9375 70.2 12.9375 68V63.44C5.95 61.64 0.75 55.44 0.75 48H12.9375V43.44C5.95 41.64 0.75 35.44 0.75 28ZM33.25 64C37.7594 64 41.375 60.4 41.375 56C41.375 51.6 37.7594 48 33.25 48C28.7812 48 25.125 51.6 25.125 56C25.125 60.4 28.7406 64 33.25 64ZM33.25 44C37.7594 44 41.375 40.4 41.375 36C41.375 31.6 37.7594 28 33.25 28C28.7812 28 25.125 31.6 25.125 36C25.125 40.4 28.7406 44 33.25 44ZM33.25 24C37.7594 24 41.375 20.4 41.375 16C41.375 11.56 37.7594 8 33.25 8C28.7812 8 25.125 11.56 25.125 16C25.125 20.4 28.7406 24 33.25 24Z" fill="white"/>
</svg>
